HIERARCHY
ROOT mixamorig:Hips
{
	OFFSET 0.000000 35.069874 -0.029489
	CHANNELS 6 Xposition Yposition Zposition Xrotation Yrotation Zrotation
	JOINT mixamorig:Spine
	{
		OFFSET 0.000000 6.876060 0.125662
		CHANNELS 3 Xrotation Yrotation Zrotation
		JOINT mixamorig:Spine1
		{
			OFFSET 0.000000 8.022060 0.146603
			CHANNELS 3 Xrotation Yrotation Zrotation
			JOINT mixamorig:Spine2
			{
				OFFSET 0.000000 9.168079 0.167547
				CHANNELS 3 Xrotation Yrotation Zrotation
				JOINT mixamorig:Neck
				{
					OFFSET 0.000000 10.314075 0.188489
					CHANNELS 3 Xrotation Yrotation Zrotation
					JOINT mixamorig:Head
					{
						OFFSET 0.000000 7.643753 -2.377445
						CHANNELS 3 Xrotation Yrotation Zrotation
						JOINT mixamorig:HeadTop_End
						{
							OFFSET 0.000000 43.788605 -13.619637
							CHANNELS 3 Xrotation Yrotation Zrotation
							End Site
							{
								OFFSET 0.000000 45.857788 0.000000
							}
						}
					}
				}
				JOINT mixamorig:LeftShoulder
				{
					OFFSET 4.392187 8.825001 0.174995
					CHANNELS 3 Xrotation Yrotation Zrotation
					JOINT mixamorig:LeftArm
					{
						OFFSET 8.774866 -2.970879 -0.026997
						CHANNELS 3 Xrotation Yrotation Zrotation
						JOINT mixamorig:LeftForeArm
						{
							OFFSET 8.450586 -0.797432 -0.648343
							CHANNELS 3 Xrotation Yrotation Zrotation
							JOINT mixamorig:LeftHand
							{
								OFFSET 18.458662 0.962311 0.193148
								CHANNELS 3 Xrotation Yrotation Zrotation
								JOINT mixamorig:LeftHandThumb1
								{
									OFFSET 2.379990 -1.333382 2.680594
									CHANNELS 3 Xrotation Yrotation Zrotation
									JOINT mixamorig:LeftHandThumb2
									{
										OFFSET 1.903984 -1.066746 2.144473
										CHANNELS 3 Xrotation Yrotation Zrotation
										JOINT mixamorig:LeftHandThumb3
										{
											OFFSET 0.966393 -1.489639 2.964555
											CHANNELS 3 Xrotation Yrotation Zrotation
											JOINT mixamorig:LeftHandThumb4
											{
												OFFSET 1.205181 -0.823021 1.625701
												CHANNELS 3 Xrotation Yrotation Zrotation
												End Site
												{
													OFFSET 1.050617 -0.818157 1.731923
												}
											}
										}
									}
								}
								JOINT mixamorig:LeftHandIndex1
								{
									OFFSET 7.830624 -0.787468 2.563931
									CHANNELS 3 Xrotation Yrotation Zrotation
									JOINT mixamorig:LeftHandIndex2
									{
										OFFSET 3.312897 -0.052605 1.515312
										CHANNELS 3 Xrotation Yrotation Zrotation
										JOINT mixamorig:LeftHandIndex3
										{
											OFFSET 3.460667 -0.207008 1.581951
											CHANNELS 3 Xrotation Yrotation Zrotation
											JOINT mixamorig:LeftHandIndex4
											{
												OFFSET 2.183182 0.110458 0.999585
												CHANNELS 3 Xrotation Yrotation Zrotation
												End Site
												{
													OFFSET 2.183868 0.110451 0.998074
												}
											}
										}
									}
								}
								JOINT mixamorig:LeftHandMiddle1
								{
									OFFSET 8.556145 -0.261200 0.258753
									CHANNELS 3 Xrotation Yrotation Zrotation
									JOINT mixamorig:LeftHandMiddle2
									{
										OFFSET 3.828903 -0.489014 -0.111505
										CHANNELS 3 Xrotation Yrotation Zrotation
										JOINT mixamorig:LeftHandMiddle3
										{
											OFFSET 3.696209 -0.166595 -0.107596
											CHANNELS 3 Xrotation Yrotation Zrotation
											JOINT mixamorig:LeftHandMiddle4
											{
												OFFSET 2.259281 0.534500 -0.065675
												CHANNELS 3 Xrotation Yrotation Zrotation
												End Site
												{
													OFFSET 2.259735 0.534134 -0.051267
												}
											}
										}
									}
								}
								JOINT mixamorig:LeftHandRing1
								{
									OFFSET 8.509293 -0.556679 -3.044941
									CHANNELS 3 Xrotation Yrotation Zrotation
									JOINT mixamorig:LeftHandRing2
									{
										OFFSET 2.995171 -0.303261 -0.843591
										CHANNELS 3 Xrotation Yrotation Zrotation
										JOINT mixamorig:LeftHandRing3
										{
											OFFSET 2.968273 -0.101997 -0.834287
											CHANNELS 3 Xrotation Yrotation Zrotation
											JOINT mixamorig:LeftHandRing4
											{
												OFFSET 1.521358 -0.461468 -0.418735
												CHANNELS 3 Xrotation Yrotation Zrotation
												End Site
												{
													OFFSET 1.516514 -0.460747 -0.436712
												}
											}
										}
									}
								}
							}
						}
					}
				}
				JOINT mixamorig:RightShoulder
				{
					OFFSET -4.392150 8.825024 0.141388
					CHANNELS 3 Xrotation Yrotation Zrotation
					JOINT mixamorig:RightArm
					{
						OFFSET -8.774886 -2.970947 -0.094209
						CHANNELS 3 Xrotation Yrotation Zrotation
						JOINT mixamorig:RightForeArm
						{
							OFFSET -8.450586 -0.797386 -0.330665
							CHANNELS 3 Xrotation Yrotation Zrotation
							JOINT mixamorig:RightHand
							{
								OFFSET -18.458664 0.962341 0.025780
								CHANNELS 3 Xrotation Yrotation Zrotation
								JOINT mixamorig:RightHandThumb1
								{
									OFFSET -2.390282 -1.240040 2.604684
									CHANNELS 3 Xrotation Yrotation Zrotation
									JOINT mixamorig:RightHandThumb2
									{
										OFFSET -1.912228 -0.992111 2.083740
										CHANNELS 3 Xrotation Yrotation Zrotation
										JOINT mixamorig:RightHandThumb3
										{
											OFFSET -0.876358 -1.555370 2.930126
											CHANNELS 3 Xrotation Yrotation Zrotation
											JOINT mixamorig:RightHandThumb4
											{
												OFFSET -1.227077 -0.755932 1.835223
												CHANNELS 3 Xrotation Yrotation Zrotation
												End Site
												{
													OFFSET -1.124962 -0.750702 1.901603
												}
											}
										}
									}
								}
								JOINT mixamorig:RightHandIndex1
								{
									OFFSET -8.716801 -0.633743 3.098187
									CHANNELS 3 Xrotation Yrotation Zrotation
									JOINT mixamorig:RightHandIndex2
									{
										OFFSET -3.319706 -0.240585 1.198087
										CHANNELS 3 Xrotation Yrotation Zrotation
										JOINT mixamorig:RightHandIndex3
										{
											OFFSET -3.153255 -0.154724 1.138827
											CHANNELS 3 Xrotation Yrotation Zrotation
											JOINT mixamorig:RightHandIndex4
											{
												OFFSET -1.818684 -0.003197 0.655154
												CHANNELS 3 Xrotation Yrotation Zrotation
												End Site
												{
													OFFSET -1.818668 -0.003197 0.655188
												}
											}
										}
									}
								}
								JOINT mixamorig:RightHandMiddle1
								{
									OFFSET -8.158691 -0.528496 0.196552
									CHANNELS 3 Xrotation Yrotation Zrotation
									JOINT mixamorig:RightHandMiddle2
									{
										OFFSET -3.890194 -0.261169 -0.136423
										CHANNELS 3 Xrotation Yrotation Zrotation
										JOINT mixamorig:RightHandMiddle3
										{
											OFFSET -3.903057 -0.179909 -0.137173
											CHANNELS 3 Xrotation Yrotation Zrotation
											JOINT mixamorig:RightHandMiddle4
											{
												OFFSET -2.366261 0.198380 -0.083987
												CHANNELS 3 Xrotation Yrotation Zrotation
												End Site
												{
													OFFSET -2.366409 0.198326 -0.079799
												}
											}
										}
									}
								}
								JOINT mixamorig:RightHandRing1
								{
									OFFSET -7.616104 -0.395126 -2.681268
									CHANNELS 3 Xrotation Yrotation Zrotation
									JOINT mixamorig:RightHandRing2
									{
										OFFSET -3.235790 -0.462120 -1.101476
										CHANNELS 3 Xrotation Yrotation Zrotation
										JOINT mixamorig:RightHandRing3
										{
											OFFSET -3.179264 -0.138618 -1.084847
											CHANNELS 3 Xrotation Yrotation Zrotation
											JOINT mixamorig:RightHandRing4
											{
												OFFSET -1.963291 -0.101624 -0.668250
												CHANNELS 3 Xrotation Yrotation Zrotation
												End Site
												{
													OFFSET -1.963745 -0.101669 -0.666919
												}
											}
										}
									}
								}
							}
						}
					}
				}
			}
		}
	}
	JOINT mixamorig:LeftUpLeg
	{
		OFFSET 10.205382 -3.823519 0.155145
		CHANNELS 3 Xrotation Yrotation Zrotation
		JOINT mixamorig:LeftLeg
		{
			OFFSET 0.283732 -12.998343 0.567794
			CHANNELS 3 Xrotation Yrotation Zrotation
			JOINT mixamorig:LeftFoot
			{
				OFFSET -1.058953 -10.688869 -2.184322
				CHANNELS 3 Xrotation Yrotation Zrotation
				JOINT mixamorig:LeftToeBase
				{
					OFFSET 0.108145 -7.191069 7.560211
					CHANNELS 3 Xrotation Yrotation Zrotation
					JOINT mixamorig:LeftToe_End
					{
						OFFSET 0.070226 0.081726 4.490266
						CHANNELS 3 Xrotation Yrotation Zrotation
						End Site
						{
							OFFSET 0.070226 0.081726 4.490267
						}
					}
				}
			}
		}
	}
	JOINT mixamorig:RightUpLeg
	{
		OFFSET -10.205383 -3.823513 0.005508
		CHANNELS 3 Xrotation Yrotation Zrotation
		JOINT mixamorig:RightLeg
		{
			OFFSET -0.283728 -12.998341 0.610627
			CHANNELS 3 Xrotation Yrotation Zrotation
			JOINT mixamorig:RightFoot
			{
				OFFSET 1.058956 -10.688892 -1.945833
				CHANNELS 3 Xrotation Yrotation Zrotation
				JOINT mixamorig:RightToeBase
				{
					OFFSET -0.108150 -7.191040 7.372945
					CHANNELS 3 Xrotation Yrotation Zrotation
					JOINT mixamorig:RightToe_End
					{
						OFFSET -0.070229 0.081738 4.479398
						CHANNELS 3 Xrotation Yrotation Zrotation
						End Site
						{
							OFFSET -0.070229 0.081738 4.479399
						}
					}
				}
			}
		}
	}
}
MOTION
Frames: 4
Frame Time: 0.016667
-36.313713 29.714531 19.098658 483.148348 74.634741 -478.571903 29.648359 -3.860422 2.151453 10.051189 -0.593727 2.104549 10.068037 -0.512037 2.035496 6.956432 -8.224848 -3.174825 12.589236 -47.855294 14.175500 -0.000001 -0.000003 -0.000003 -0.577003 8.878105 1.148473 11.897283 -20.560877 -46.633656 -111.834225 -84.161086 -114.500021 -14.434642 5.777002 7.827544 8.332993 24.318375 1.938711 1.261890 30.859898 11.548848 -1.904201 -11.826039 -6.141989 0.000002 -0.000002 -0.000004 4.795069 23.730493 -10.014694 6.830853 1.825448 -14.269612 12.145417 0.700464 -25.885500 -0.000002 0.000002 -0.000001 -0.134799 -0.838541 -10.148543 0.518972 3.967088 -29.179798 0.212776 4.999020 -44.944509 -0.000001 0.000001 -0.000003 -5.785883 -12.035938 -21.707408 -7.174382 8.309462 -34.597483 -3.640939 7.579769 -21.988054 -0.000000 0.000006 -0.000004 0.521077 6.023646 12.144590 -33.171237 19.274147 33.382007 -169.867829 61.843210 171.423869 -13.605576 -3.637152 -12.136068 9.822095 -21.733536 0.288798 -0.261861 -32.460170 -13.773220 1.936825 13.026128 7.687609 0.000003 -0.000001 -0.000002 1.158688 -18.387537 -0.219341 6.085684 -1.184686 16.023917 8.878149 -1.020443 23.607627 -0.000000 -0.000001 0.000001 -0.329567 2.240043 7.200738 0.000550 -3.084376 21.037476 -0.081352 -4.025020 32.667668 0.000000 -0.000000 -0.000001 -5.544837 16.618458 12.975391 -7.907408 -6.739188 28.487918 -7.338039 -7.188429 26.333419 0.000000 -0.000001 -0.000000 -17.397200 1.887335 -17.821686 45.546075 -8.531635 4.105329 -33.742719 -11.662431 15.373757 -7.320587 -0.000066 0.000012 0.000001 -0.000000 0.000000 -80.243105 -51.102509 -21.560407 44.193031 5.359616 -12.110711 7.546187 20.586853 -25.412579 -1.967134 -0.000030 0.000011 0.000000 0.000001 0.000000 
-35.892365 29.966379 19.092136 483.533680 74.302623 -478.861394 29.180378 -3.936924 2.322161 9.990914 -0.597979 2.039411 10.007059 -0.525591 1.971223 7.349092 -8.185734 -3.218876 12.975885 -47.865932 14.477225 -0.000002 0.000001 -0.000001 -0.599836 8.963606 1.239776 12.468827 -20.940884 -46.930165 -108.331902 -84.287813 -111.015108 -14.419216 5.893683 7.848977 8.335232 24.434662 1.940406 1.264842 30.918009 11.548923 -1.896772 -11.797877 -6.140234 0.000002 -0.000004 -0.000002 4.949274 23.754247 -10.369611 6.698130 1.812983 -13.996473 12.141439 0.700866 -25.877106 0.000002 -0.000002 0.000001 -0.125808 -0.769631 -10.574882 0.517624 3.963699 -29.157695 0.212925 4.999392 -44.946920 0.000000 0.000001 -0.000002 -5.882351 -11.890227 -22.267673 -7.210657 8.402244 -34.892073 -3.644625 7.586177 -22.013635 0.000001 0.000002 -0.000004 0.533904 6.412211 11.731220 -30.116456 18.057488 33.127855 -170.265223 60.897741 171.773452 -13.851281 -4.192952 -12.255723 9.820123 -21.704888 0.288153 -0.262608 -32.445837 -13.773082 1.934798 13.033002 7.687639 -0.000001 -0.000003 -0.000002 1.060035 -18.352435 -0.503546 5.897069 -1.169652 15.537897 8.850585 -1.021844 23.535550 -0.000001 0.000002 0.000003 -0.328427 2.271685 6.997306 -0.008898 -3.033652 20.707382 -0.081819 -4.023363 32.657064 -0.000001 -0.000001 -0.000000 -5.512748 16.648829 12.848704 -7.888339 -6.707709 28.394983 -7.353377 -7.211945 26.404492 -0.000000 0.000001 0.000000 -16.647130 2.507781 -17.508845 44.719390 -8.016910 4.103787 -31.927685 -12.520546 15.172662 -8.982711 -0.000006 0.000009 0.000000 -0.000001 -0.000000 -80.065738 -51.328223 -22.538762 44.341189 5.517281 -12.102148 6.948741 22.222330 -24.935048 -1.641744 -0.000001 0.000011 -0.000000 0.000001 0.000000 
-35.456421 30.236971 19.083521 483.607446 73.991672 -478.762602 28.609190 -3.966844 2.417026 9.959320 -0.595814 1.961483 9.974572 -0.532129 1.894323 7.626053 -8.140548 -3.267204 13.013155 -47.851957 14.746151 -0.000001 0.000001 -0.000001 -0.611853 9.159446 1.120407 12.601960 -21.531937 -47.449181 -94.727470 -84.552394 -97.473186 -14.346860 6.002792 7.886214 8.337299 24.542622 1.942016 1.267605 30.971944 11.548958 -1.889891 -11.771742 -6.138604 0.000001 0.000004 -0.000004 5.171964 23.786981 -10.881717 6.603729 1.803741 -13.802132 12.103971 0.704650 -25.797956 0.000001 0.000005 0.000005 -0.116514 -0.702132 -10.992830 0.520363 3.970591 -29.202607 0.211219 4.995220 -44.920819 -0.000001 0.000000 -0.000000 -5.944337 -11.794898 -22.632021 -7.251181 8.507510 -35.225680 -3.652690 7.600180 -22.069571 0.000002 0.000005 -0.000004 0.546674 6.947926 11.216892 -26.767474 17.012388 33.003997 -170.489964 60.336307 171.969738 -14.022169 -4.738640 -12.415385 9.821200 -21.720370 0.288508 -0.262216 -32.453593 -13.773154 1.935897 13.029280 7.687633 0.000001 -0.000004 -0.000002 1.078586 -18.359075 -0.450082 5.709926 -1.153152 15.055287 8.806345 -1.023992 23.419860 -0.000000 0.000001 -0.000002 -0.328462 2.270635 7.004108 -0.018342 -2.981265 20.366726 -0.083806 -4.015951 32.609157 -0.000000 0.000001 -0.000001 -5.500391 16.660488 12.800023 -7.862664 -6.665402 28.270165 -7.364170 -7.228531 26.454518 0.000001 -0.000002 0.000000 -16.254534 3.607686 -17.240591 45.009157 -7.410012 4.247264 -29.595541 -13.038164 15.218642 -10.900974 -0.000066 0.000003 0.000000 -0.000002 0.000000 -79.575235 -51.357227 -23.176263 44.417670 5.646537 -12.115618 6.059607 23.354553 -24.256006 -1.313812 -0.000034 0.000007 -0.000000 0.000002 -0.000000 
-35.028866 30.491879 19.084229 483.543515 73.769123 -478.495787 28.028947 -3.945824 2.469276 9.948334 -0.588578 1.870510 9.962461 -0.532804 1.804662 7.805116 -8.085684 -3.327044 12.910406 -47.781814 15.014163 -0.000000 0.000001 0.000001 -0.609789 9.464577 0.784880 12.249020 -22.285336 -48.181141 -70.981484 -84.250021 -73.834844 -14.232064 6.099364 7.932799 8.339128 24.636945 1.943368 1.270035 31.019045 11.548988 -1.883885 -11.748883 -6.137208 0.000006 0.000003 -0.000000 5.409895 23.819834 -11.428175 6.564834 1.799832 -13.721994 12.043178 0.710673 -25.669589 0.000006 -0.000000 -0.000001 -0.108835 -0.649100 -11.321578 0.527662 3.988856 -29.321975 0.208637 4.988921 -44.881334 -0.000000 0.000003 -0.000001 -5.965516 -11.762011 -22.757340 -7.292473 8.616729 -35.571045 -3.665459 7.622465 -22.158448 0.000000 0.000007 -0.000002 0.559254 7.625042 10.676765 -23.366084 16.291263 33.000038 -170.560001 60.157233 172.030663 -14.115668 -5.225654 -12.603133 9.825426 -21.782243 0.289872 -0.260538 -32.484527 -13.773431 1.940286 13.014406 7.687536 0.000001 -0.000000 -0.000002 1.183875 -18.396423 -0.146880 5.550306 -1.137821 14.643444 8.742273 -1.026942 23.252221 0.000001 0.000001 0.000002 -0.329329 2.247125 7.155064 -0.026341 -2.935489 20.069404 -0.087761 -4.001334 32.514931 -0.000001 -0.000000 0.000000 -5.496068 16.664541 12.782971 -7.836908 -6.623209 28.145447 -7.368072 -7.234530 26.472568 0.000001 -0.000001 -0.000001 -16.941449 5.190565 -16.874928 47.698220 -7.029420 4.509250 -26.705141 -12.704651 15.342232 -12.394579 -0.000040 0.000002 -0.000000 0.000001 -0.000000 -78.721024 -51.114861 -23.359527 44.539537 5.718674 -12.159548 4.881087 23.836725 -23.375452 -1.002304 -0.000010 0.000009 -0.000000 0.000000 -0.000000 
